<mxfile host="app.diagrams.net" modified="2023-06-01T23:10:19.581Z" agent="Mozilla/5.0 (Windows NT 10.0; Win64; x64) AppleWebKit/537.36 (KHTML, like Gecko) Chrome/114.0.0.0 Safari/537.36" etag="HjzQHRg41x8qf4VrU8x3" version="21.3.6" type="device">
  <diagram id="C5RBs43oDa-KdzZeNtuy" name="Page-1">
    <mxGraphModel dx="499" dy="304" grid="1" gridSize="10" guides="1" tooltips="1" connect="1" arrows="1" fold="1" page="1" pageScale="1" pageWidth="827" pageHeight="1169" math="0" shadow="0">
      <root>
        <mxCell id="WIyWlLk6GJQsqaUBKTNV-0" />
        <mxCell id="WIyWlLk6GJQsqaUBKTNV-1" parent="WIyWlLk6GJQsqaUBKTNV-0" />
        <mxCell id="tba04dcC740ANhFnjEAJ-0" value="EquipoFutbol" style="swimlane;fontStyle=1;align=center;verticalAlign=top;childLayout=stackLayout;horizontal=1;startSize=26;horizontalStack=0;resizeParent=1;resizeParentMax=0;resizeLast=0;collapsible=1;marginBottom=0;whiteSpace=wrap;html=1;" vertex="1" parent="WIyWlLk6GJQsqaUBKTNV-1">
          <mxGeometry x="20" y="80" width="399" height="346" as="geometry" />
        </mxCell>
        <mxCell id="tba04dcC740ANhFnjEAJ-1" value="- nombre: String" style="text;strokeColor=none;fillColor=none;align=left;verticalAlign=top;spacingLeft=4;spacingRight=4;overflow=hidden;rotatable=0;points=[[0,0.5],[1,0.5]];portConstraint=eastwest;whiteSpace=wrap;html=1;" vertex="1" parent="tba04dcC740ANhFnjEAJ-0">
          <mxGeometry y="26" width="399" height="26" as="geometry" />
        </mxCell>
        <mxCell id="tba04dcC740ANhFnjEAJ-4" value="- ciudad: String" style="text;strokeColor=none;fillColor=none;align=left;verticalAlign=top;spacingLeft=4;spacingRight=4;overflow=hidden;rotatable=0;points=[[0,0.5],[1,0.5]];portConstraint=eastwest;whiteSpace=wrap;html=1;" vertex="1" parent="tba04dcC740ANhFnjEAJ-0">
          <mxGeometry y="52" width="399" height="26" as="geometry" />
        </mxCell>
        <mxCell id="tba04dcC740ANhFnjEAJ-9" value="- jugadores: List&amp;lt;Jugador&amp;gt;" style="text;strokeColor=none;fillColor=none;align=left;verticalAlign=top;spacingLeft=4;spacingRight=4;overflow=hidden;rotatable=0;points=[[0,0.5],[1,0.5]];portConstraint=eastwest;whiteSpace=wrap;html=1;" vertex="1" parent="tba04dcC740ANhFnjEAJ-0">
          <mxGeometry y="78" width="399" height="26" as="geometry" />
        </mxCell>
        <mxCell id="tba04dcC740ANhFnjEAJ-2" value="" style="line;strokeWidth=1;fillColor=none;align=left;verticalAlign=middle;spacingTop=-1;spacingLeft=3;spacingRight=3;rotatable=0;labelPosition=right;points=[];portConstraint=eastwest;strokeColor=inherit;" vertex="1" parent="tba04dcC740ANhFnjEAJ-0">
          <mxGeometry y="104" width="399" height="8" as="geometry" />
        </mxCell>
        <mxCell id="tba04dcC740ANhFnjEAJ-15" value="+ EquipoFutbol(String nombre, String ciudad, List&amp;lt;Jugador&amp;gt; jugadores)" style="text;strokeColor=none;fillColor=none;align=left;verticalAlign=top;spacingLeft=4;spacingRight=4;overflow=hidden;rotatable=0;points=[[0,0.5],[1,0.5]];portConstraint=eastwest;whiteSpace=wrap;html=1;" vertex="1" parent="tba04dcC740ANhFnjEAJ-0">
          <mxGeometry y="112" width="399" height="26" as="geometry" />
        </mxCell>
        <mxCell id="tba04dcC740ANhFnjEAJ-33" value="+ getNombre(): String" style="text;strokeColor=none;fillColor=none;align=left;verticalAlign=top;spacingLeft=4;spacingRight=4;overflow=hidden;rotatable=0;points=[[0,0.5],[1,0.5]];portConstraint=eastwest;whiteSpace=wrap;html=1;" vertex="1" parent="tba04dcC740ANhFnjEAJ-0">
          <mxGeometry y="138" width="399" height="26" as="geometry" />
        </mxCell>
        <mxCell id="tba04dcC740ANhFnjEAJ-36" value="+ setNombre(String nombre): void" style="text;strokeColor=none;fillColor=none;align=left;verticalAlign=top;spacingLeft=4;spacingRight=4;overflow=hidden;rotatable=0;points=[[0,0.5],[1,0.5]];portConstraint=eastwest;whiteSpace=wrap;html=1;" vertex="1" parent="tba04dcC740ANhFnjEAJ-0">
          <mxGeometry y="164" width="399" height="26" as="geometry" />
        </mxCell>
        <mxCell id="tba04dcC740ANhFnjEAJ-34" value="+ getCiudad(): String" style="text;strokeColor=none;fillColor=none;align=left;verticalAlign=top;spacingLeft=4;spacingRight=4;overflow=hidden;rotatable=0;points=[[0,0.5],[1,0.5]];portConstraint=eastwest;whiteSpace=wrap;html=1;" vertex="1" parent="tba04dcC740ANhFnjEAJ-0">
          <mxGeometry y="190" width="399" height="26" as="geometry" />
        </mxCell>
        <mxCell id="tba04dcC740ANhFnjEAJ-37" value="+ setCiudad(String ciudad): void" style="text;strokeColor=none;fillColor=none;align=left;verticalAlign=top;spacingLeft=4;spacingRight=4;overflow=hidden;rotatable=0;points=[[0,0.5],[1,0.5]];portConstraint=eastwest;whiteSpace=wrap;html=1;" vertex="1" parent="tba04dcC740ANhFnjEAJ-0">
          <mxGeometry y="216" width="399" height="26" as="geometry" />
        </mxCell>
        <mxCell id="tba04dcC740ANhFnjEAJ-35" value="+ getJugadores(): List&amp;lt;Jugador&amp;gt;" style="text;strokeColor=none;fillColor=none;align=left;verticalAlign=top;spacingLeft=4;spacingRight=4;overflow=hidden;rotatable=0;points=[[0,0.5],[1,0.5]];portConstraint=eastwest;whiteSpace=wrap;html=1;" vertex="1" parent="tba04dcC740ANhFnjEAJ-0">
          <mxGeometry y="242" width="399" height="26" as="geometry" />
        </mxCell>
        <mxCell id="tba04dcC740ANhFnjEAJ-38" value="+ setJugadores(List&amp;lt;Jugador&amp;gt;): void" style="text;strokeColor=none;fillColor=none;align=left;verticalAlign=top;spacingLeft=4;spacingRight=4;overflow=hidden;rotatable=0;points=[[0,0.5],[1,0.5]];portConstraint=eastwest;whiteSpace=wrap;html=1;" vertex="1" parent="tba04dcC740ANhFnjEAJ-0">
          <mxGeometry y="268" width="399" height="26" as="geometry" />
        </mxCell>
        <mxCell id="tba04dcC740ANhFnjEAJ-3" value="+ agregarJugador(Jugador jugador): void" style="text;strokeColor=none;fillColor=none;align=left;verticalAlign=top;spacingLeft=4;spacingRight=4;overflow=hidden;rotatable=0;points=[[0,0.5],[1,0.5]];portConstraint=eastwest;whiteSpace=wrap;html=1;" vertex="1" parent="tba04dcC740ANhFnjEAJ-0">
          <mxGeometry y="294" width="399" height="26" as="geometry" />
        </mxCell>
        <mxCell id="tba04dcC740ANhFnjEAJ-14" value="+ mostrarInformacion(): void" style="text;strokeColor=none;fillColor=none;align=left;verticalAlign=top;spacingLeft=4;spacingRight=4;overflow=hidden;rotatable=0;points=[[0,0.5],[1,0.5]];portConstraint=eastwest;whiteSpace=wrap;html=1;" vertex="1" parent="tba04dcC740ANhFnjEAJ-0">
          <mxGeometry y="320" width="399" height="26" as="geometry" />
        </mxCell>
        <mxCell id="tba04dcC740ANhFnjEAJ-5" value="Jugador" style="swimlane;fontStyle=1;align=center;verticalAlign=top;childLayout=stackLayout;horizontal=1;startSize=26;horizontalStack=0;resizeParent=1;resizeParentMax=0;resizeLast=0;collapsible=1;marginBottom=0;whiteSpace=wrap;html=1;" vertex="1" parent="WIyWlLk6GJQsqaUBKTNV-1">
          <mxGeometry x="480" y="80" width="330" height="268" as="geometry" />
        </mxCell>
        <mxCell id="tba04dcC740ANhFnjEAJ-6" value="- nombre: String" style="text;strokeColor=none;fillColor=none;align=left;verticalAlign=top;spacingLeft=4;spacingRight=4;overflow=hidden;rotatable=0;points=[[0,0.5],[1,0.5]];portConstraint=eastwest;whiteSpace=wrap;html=1;" vertex="1" parent="tba04dcC740ANhFnjEAJ-5">
          <mxGeometry y="26" width="330" height="26" as="geometry" />
        </mxCell>
        <mxCell id="tba04dcC740ANhFnjEAJ-12" value="- telefono: String" style="text;strokeColor=none;fillColor=none;align=left;verticalAlign=top;spacingLeft=4;spacingRight=4;overflow=hidden;rotatable=0;points=[[0,0.5],[1,0.5]];portConstraint=eastwest;whiteSpace=wrap;html=1;" vertex="1" parent="tba04dcC740ANhFnjEAJ-5">
          <mxGeometry y="52" width="330" height="26" as="geometry" />
        </mxCell>
        <mxCell id="tba04dcC740ANhFnjEAJ-13" value="- direccion: String" style="text;strokeColor=none;fillColor=none;align=left;verticalAlign=top;spacingLeft=4;spacingRight=4;overflow=hidden;rotatable=0;points=[[0,0.5],[1,0.5]];portConstraint=eastwest;whiteSpace=wrap;html=1;" vertex="1" parent="tba04dcC740ANhFnjEAJ-5">
          <mxGeometry y="78" width="330" height="26" as="geometry" />
        </mxCell>
        <mxCell id="tba04dcC740ANhFnjEAJ-7" value="" style="line;strokeWidth=1;fillColor=none;align=left;verticalAlign=middle;spacingTop=-1;spacingLeft=3;spacingRight=3;rotatable=0;labelPosition=right;points=[];portConstraint=eastwest;strokeColor=inherit;" vertex="1" parent="tba04dcC740ANhFnjEAJ-5">
          <mxGeometry y="104" width="330" height="8" as="geometry" />
        </mxCell>
        <mxCell id="tba04dcC740ANhFnjEAJ-31" value="+ Jugador(String nombre, String telefono, String direccion)" style="text;strokeColor=none;fillColor=none;align=left;verticalAlign=top;spacingLeft=4;spacingRight=4;overflow=hidden;rotatable=0;points=[[0,0.5],[1,0.5]];portConstraint=eastwest;whiteSpace=wrap;html=1;" vertex="1" parent="tba04dcC740ANhFnjEAJ-5">
          <mxGeometry y="112" width="330" height="26" as="geometry" />
        </mxCell>
        <mxCell id="tba04dcC740ANhFnjEAJ-39" value="+ getNombre(): String" style="text;strokeColor=none;fillColor=none;align=left;verticalAlign=top;spacingLeft=4;spacingRight=4;overflow=hidden;rotatable=0;points=[[0,0.5],[1,0.5]];portConstraint=eastwest;whiteSpace=wrap;html=1;" vertex="1" parent="tba04dcC740ANhFnjEAJ-5">
          <mxGeometry y="138" width="330" height="26" as="geometry" />
        </mxCell>
        <mxCell id="tba04dcC740ANhFnjEAJ-40" value="+ getTelefono(): String" style="text;strokeColor=none;fillColor=none;align=left;verticalAlign=top;spacingLeft=4;spacingRight=4;overflow=hidden;rotatable=0;points=[[0,0.5],[1,0.5]];portConstraint=eastwest;whiteSpace=wrap;html=1;" vertex="1" parent="tba04dcC740ANhFnjEAJ-5">
          <mxGeometry y="164" width="330" height="26" as="geometry" />
        </mxCell>
        <mxCell id="tba04dcC740ANhFnjEAJ-41" value="+ setTelefono(String telefono): void" style="text;strokeColor=none;fillColor=none;align=left;verticalAlign=top;spacingLeft=4;spacingRight=4;overflow=hidden;rotatable=0;points=[[0,0.5],[1,0.5]];portConstraint=eastwest;whiteSpace=wrap;html=1;" vertex="1" parent="tba04dcC740ANhFnjEAJ-5">
          <mxGeometry y="190" width="330" height="26" as="geometry" />
        </mxCell>
        <mxCell id="tba04dcC740ANhFnjEAJ-42" value="+ getDireccion(): String" style="text;strokeColor=none;fillColor=none;align=left;verticalAlign=top;spacingLeft=4;spacingRight=4;overflow=hidden;rotatable=0;points=[[0,0.5],[1,0.5]];portConstraint=eastwest;whiteSpace=wrap;html=1;" vertex="1" parent="tba04dcC740ANhFnjEAJ-5">
          <mxGeometry y="216" width="330" height="26" as="geometry" />
        </mxCell>
        <mxCell id="tba04dcC740ANhFnjEAJ-43" value="+ setDireccion(String direccion): void" style="text;strokeColor=none;fillColor=none;align=left;verticalAlign=top;spacingLeft=4;spacingRight=4;overflow=hidden;rotatable=0;points=[[0,0.5],[1,0.5]];portConstraint=eastwest;whiteSpace=wrap;html=1;" vertex="1" parent="tba04dcC740ANhFnjEAJ-5">
          <mxGeometry y="242" width="330" height="26" as="geometry" />
        </mxCell>
        <mxCell id="tba04dcC740ANhFnjEAJ-32" style="edgeStyle=orthogonalEdgeStyle;rounded=0;orthogonalLoop=1;jettySize=auto;html=1;exitX=1;exitY=0.5;exitDx=0;exitDy=0;entryX=-0.009;entryY=0.094;entryDx=0;entryDy=0;entryPerimeter=0;" edge="1" parent="WIyWlLk6GJQsqaUBKTNV-1" source="tba04dcC740ANhFnjEAJ-9" target="tba04dcC740ANhFnjEAJ-5">
          <mxGeometry relative="1" as="geometry" />
        </mxCell>
      </root>
    </mxGraphModel>
  </diagram>
</mxfile>
